<?xml version="1.0" standalone="no"?>
<!DOCTYPE svg PUBLIC "-//W3C//DTD SVG 20010904//EN"
 "http://www.w3.org/TR/2001/REC-SVG-20010904/DTD/svg10.dtd">
<svg version="1.0" xmlns="http://www.w3.org/2000/svg"
 width="400.000000pt" height="200.000000pt" viewBox="0 0 400.000000 200.000000"
 preserveAspectRatio="xMidYMid meet">

<g transform="translate(0.000000,200.000000) scale(0.100000,-0.100000)"
fill="#000000" stroke="none">
<path d="M1135 1367 c-172 -58 -255 -187 -255 -397 0 -186 70 -315 204 -377
55 -25 71 -28 171 -28 98 0 116 3 166 26 73 35 125 87 163 168 30 64 31 69 31
211 0 142 -1 147 -31 211 -63 133 -155 190 -313 196 -62 2 -110 -2 -136 -10z
m208 -141 c75 -31 117 -124 117 -256 0 -132 -42 -225 -117 -256 -49 -21 -146
-18 -193 6 -74 38 -104 110 -104 250 0 139 29 211 102 250 45 23 147 27 195 6z"/>
<path d="M3485 1367 c-172 -58 -255 -187 -255 -397 0 -186 70 -315 204 -377
55 -25 71 -28 171 -28 98 0 116 3 166 26 73 35 125 87 163 168 30 64 31 69 31
211 0 142 -1 147 -31 211 -63 133 -155 190 -313 196 -62 2 -110 -2 -136 -10z
m208 -141 c75 -31 117 -124 117 -256 0 -132 -42 -225 -117 -256 -49 -21 -146
-18 -193 6 -74 38 -104 110 -104 250 0 139 29 211 102 250 45 23 147 27 195 6z"/>
<path d="M70 970 l0 -402 203 4 c248 5 289 17 377 107 78 80 95 131 95 291 0
160 -17 211 -95 291 -88 90 -129 102 -377 107 l-203 4 0 -402z m406 240 c83
-41 122 -137 111 -277 -13 -171 -103 -240 -299 -231 l-63 3 -3 255 c-1 140 0
261 3 269 9 23 192 9 251 -19z"/>
<path d="M1790 970 l0 -400 80 0 80 0 0 169 c0 94 3 172 8 175 4 2 70 -73 147
-167 l140 -172 93 -3 c50 -1 92 0 92 4 0 4 -70 94 -155 201 -86 106 -158 200
-161 208 -4 9 52 85 140 194 80 99 146 183 146 186 0 3 -37 5 -83 5 l-83 0
-133 -165 c-74 -91 -138 -165 -143 -165 -4 0 -8 74 -8 165 l0 165 -80 0 -80 0
0 -400z"/>
<path d="M2530 970 l0 -400 80 0 80 0 0 175 c0 136 3 173 13 169 6 -3 73 -81
147 -174 l135 -169 93 -1 c50 0 92 2 92 5 0 2 -74 98 -164 211 l-164 207 142
176 c78 97 146 182 150 189 5 9 -12 12 -77 12 l-83 0 -135 -165 c-74 -91 -137
-165 -141 -165 -5 0 -8 74 -8 165 l0 165 -80 0 -80 0 0 -400z"/>
</g>
</svg>
